<svg xmlns="http://www.w3.org/2000/svg" width="122" height="33"><g fill="none" fill-rule="evenodd"><path fill="#000" fill-rule="nonzero" d="m7.817 26.462 1.815 5.04H4.416a3.877 3.877 0 0 1-3.875-3.865v-7.76a22.612 22.612 0 0 0 11.545 3.44c4.446 0 9.662-.419 15.136-6.222a13.811 13.811 0 0 1-2.178 3.268c-4.582 5.046-11.236 6.099-17.227 6.099zm23.679-22.08v7.015c-1.722-.935-3.506-2.702-4.502-5.908L22.37 8.197a10.846 10.846 0 0 0 4.582 5.465 19.687 19.687 0 0 1-9.422 2.523c-6.44 0-11.908-3.736-15.991-8.32L.528 9.612v-5.23A3.884 3.884 0 0 1 4.405.517h2.589L3.635 2.523s3.9 11.692 15.843 11.692a21.084 21.084 0 0 0 4.958-.855 6.625 6.625 0 0 1-2.4-2.708c-3.197-.677-7.693-2.67-10.233-10.147h15.825a3.881 3.881 0 0 1 3.868 3.877zM30.18 14.806c.436.07.875.117 1.316.142v12.67a3.876 3.876 0 0 1-3.868 3.865h-6.262a16.048 16.048 0 0 0 6.957-7.385 23.225 23.225 0 0 0 1.857-9.292z"/><path fill="#FD0" fill-rule="nonzero" d="M24.436 13.372c-1.613.482-3.277.77-4.958.856-11.944 0-15.843-11.693-15.843-11.693L7.005.53h4.798c2.54 7.47 7.036 9.458 10.234 10.135a6.62 6.62 0 0 0 2.399 2.707z"/><path fill="#FD0" fill-rule="nonzero" d="M31.496 11.397v3.55c-.44-.024-.88-.071-1.316-.14a23.212 23.212 0 0 1-1.845 9.304c-1.46 3.15-3.9 5.74-6.956 7.384H9.632l-1.815-5.033c5.99 0 12.645-1.034 17.221-6.08.878-.98 1.611-2.08 2.177-3.268-5.473 5.803-10.689 6.221-15.136 6.221A22.61 22.61 0 0 1 .541 19.877V9.612L1.55 7.865c4.071 4.584 9.52 8.32 15.979 8.32a19.684 19.684 0 0 0 9.422-2.523 10.846 10.846 0 0 1-4.582-5.465l4.625-2.708c.996 3.206 2.78 4.973 4.502 5.908z"/><path d="m7.817 26.462 1.815 5.04H4.416a3.877 3.877 0 0 1-3.875-3.865v-7.76a22.612 22.612 0 0 0 11.545 3.44c4.446 0 9.662-.419 15.136-6.222a13.811 13.811 0 0 1-2.178 3.268c-4.582 5.046-11.236 6.099-17.227 6.099zm23.679-22.08v7.015c-1.722-.935-3.506-2.702-4.502-5.908L22.37 8.197a10.846 10.846 0 0 0 4.582 5.465 19.687 19.687 0 0 1-9.422 2.523c-6.44 0-11.908-3.736-15.991-8.32L.528 9.612v-5.23A3.884 3.884 0 0 1 4.405.517h2.589L3.635 2.523s3.9 11.692 15.843 11.692a21.084 21.084 0 0 0 4.958-.855 6.625 6.625 0 0 1-2.4-2.708c-3.197-.677-7.693-2.67-10.233-10.147h15.825a3.881 3.881 0 0 1 3.868 3.877zM30.18 14.806c.436.07.875.117 1.316.142v12.67a3.876 3.876 0 0 1-3.868 3.865h-6.262a16.048 16.048 0 0 0 6.957-7.385 23.225 23.225 0 0 0 1.857-9.292z"/><path fill="#000" fill-rule="nonzero" d="M36.798 23.742V8.283h6.255c3.456 0 5.062 1.655 5.062 4.154a3.51 3.51 0 0 1-2.06 3.114 3.6 3.6 0 0 1 2.68 3.692c0 2.566-1.74 4.517-5.775 4.517l-6.162-.018zm6.298-9.176c1.285 0 2.202-.615 2.202-1.97 0-1.168-.85-1.845-2.22-1.845h-3.396v3.827l3.414-.012zm-.16 6.72c1.845 0 2.934-.85 2.934-2.221 0-1.373-1.101-2.093-3.002-2.093h-3.186v4.308l3.254.006zm14.324 2.456-.32-1.724a3.56 3.56 0 0 1-3.186 1.724 3.286 3.286 0 0 1-3.438-3.397c0-2.819 1.95-3.853 5.062-3.853h1.562v-.363c0-1.169-.664-1.766-2.017-1.766a6.201 6.201 0 0 0-3.26.917l-.615-2.018a7.913 7.913 0 0 1 4.244-1.145c3.075 0 4.514 1.532 4.514 4.172v7.453H57.26zm-.32-5.324h-1.586c-1.47 0-2.295.665-2.295 1.847a1.281 1.281 0 0 0 1.286 1.378 2.588 2.588 0 0 0 2.589-2.658l.006-.567zm15.352 5.324-5.253-8.764a16.005 16.005 0 0 1-1.513-3.206h-.067c.237 1.155.367 2.33.387 3.508v8.462H62.87V8.283h3.205l5.043 8.763a17.105 17.105 0 0 1 1.513 3.206h.068a18.963 18.963 0 0 1-.388-3.507V8.283h2.977v15.459h-2.995zm15.763 0-1.168-3.434h-5.591l-1.169 3.464H77.01l5.572-15.458h3.02l5.572 15.458-3.118-.03zm-2.792-8.259-1.15-3.945h-.043l-1.144 3.945-.757 2.32h3.85l-.756-2.32zm17.092 8.259-5.271-8.764a15.896 15.896 0 0 1-1.513-3.206h-.068c.238 1.155.368 2.33.388 3.508v8.462h-2.977V8.283h3.204l5.044 8.763a17.105 17.105 0 0 1 1.513 3.206h.067a18.962 18.962 0 0 1-.387-3.507V8.283h2.977v15.459h-2.977zm15.763 0-1.168-3.434h-5.591l-1.169 3.464h-3.118l5.572-15.458h3.026l5.567 15.458-3.119-.03zm-2.792-8.259-1.15-3.945h-.043l-1.144 3.945-.757 2.32h3.85l-.756-2.32z"/></g></svg>